{
    "asset" : {
        "generator" : "Khronos glTF Blender I/O v3.4.50",
        "version" : "2.0"
    },
    "scene" : 0,
    "scenes" : [
        {
            "name" : "Scene",
            "nodes" : [
                7
            ]
        }
    ],
    "nodes" : [
        {
            "name" : "Body.003_2",
            "scale" : [
                0.014393934980034828,
                0.014393934980034828,
                0.014393934980034828
            ],
            "translation" : [
                0.001481623505242169,
                3.672640085220337,
                2.253159999847412
            ]
        },
        {
            "name" : "Cylinder_0",
            "rotation" : [
                0.70710688829422,
                0,
                0,
                0.7071066498756409
            ],
            "scale" : [
                1.5180028676986694,
                0.6194012761116028,
                1.5180031061172485
            ],
            "translation" : [
                0,
                0,
                -0.0789942741394043
            ]
        },
        {
            "mesh" : 0,
            "name" : "Object_16"
        },
        {
            "mesh" : 1,
            "name" : "Object_8"
        },
        {
            "children" : [
                2,
                3
            ],
            "name" : "wheels3_1",
            "rotation" : [
                -0.5,
                0.5,
                0.5000000596046448,
                0.4999999403953552
            ],
            "scale" : [
                4.736236095428467,
                4.736236095428467,
                4.736236095428467
            ],
            "translation" : [
                0,
                0,
                -1.1571687459945679
            ]
        },
        {
            "children" : [
                0,
                1,
                4
            ],
            "name" : "GLTF_SceneRootNode",
            "rotation" : [
                0.70710688829422,
                0,
                0,
                0.7071066498756409
            ]
        },
        {
            "children" : [
                5
            ],
            "name" : "root"
        },
        {
            "children" : [
                6
            ],
            "name" : "Sketchfab_model",
            "rotation" : [
                -0.70710688829422,
                0,
                0,
                0.7071066498756409
            ]
        }
    ],
    "materials" : [
        {
            "doubleSided" : true,
            "name" : "Material.030",
            "pbrMetallicRoughness" : {
                "baseColorTexture" : {
                    "index" : 0
                },
                "metallicFactor" : 0.6097273826599121,
                "roughnessFactor" : 0.14763420820236206
            }
        },
        {
            "doubleSided" : true,
            "name" : "Matte__FF070707__spec",
            "pbrMetallicRoughness" : {
                "baseColorFactor" : [
                    0.02638307958841324,
                    0.02638307958841324,
                    0.02638307958841324,
                    1
                ],
                "metallicFactor" : 0.792132556438446,
                "roughnessFactor" : 0.5306851267814636
            }
        }
    ],
    "meshes" : [
        {
            "name" : "Object_11",
            "primitives" : [
                {
                    "attributes" : {
                        "POSITION" : 0,
                        "TEXCOORD_0" : 1,
                        "TEXCOORD_1" : 2,
                        "TEXCOORD_2" : 3,
                        "TEXCOORD_3" : 4,
                        "NORMAL" : 5
                    },
                    "indices" : 6,
                    "material" : 0
                }
            ]
        },
        {
            "name" : "Object_3",
            "primitives" : [
                {
                    "attributes" : {
                        "POSITION" : 7,
                        "TEXCOORD_0" : 8,
                        "TEXCOORD_1" : 9,
                        "TEXCOORD_2" : 10,
                        "TEXCOORD_3" : 11,
                        "NORMAL" : 12
                    },
                    "indices" : 13,
                    "material" : 1
                }
            ]
        }
    ],
    "textures" : [
        {
            "sampler" : 0,
            "source" : 0
        }
    ],
    "images" : [
        {
            "bufferView" : 7,
            "mimeType" : "image/jpeg",
            "name" : "Material.030_baseColor"
        }
    ],
    "accessors" : [
        {
            "bufferView" : 0,
            "componentType" : 5126,
            "count" : 20,
            "max" : [
                0.005334019660949707,
                0.02865356206893921,
                0.02413952350616455
            ],
            "min" : [
                0.005334019660949707,
                -0.02373841404914856,
                -0.02944052219390869
            ],
            "type" : "VEC3"
        },
        {
            "bufferView" : 1,
            "componentType" : 5126,
            "count" : 20,
            "type" : "VEC2"
        },
        {
            "bufferView" : 2,
            "componentType" : 5126,
            "count" : 20,
            "type" : "VEC2"
        },
        {
            "bufferView" : 3,
            "componentType" : 5126,
            "count" : 20,
            "type" : "VEC2"
        },
        {
            "bufferView" : 4,
            "componentType" : 5126,
            "count" : 20,
            "type" : "VEC2"
        },
        {
            "bufferView" : 5,
            "componentType" : 5126,
            "count" : 20,
            "type" : "VEC3"
        },
        {
            "bufferView" : 6,
            "componentType" : 5123,
            "count" : 54,
            "type" : "SCALAR"
        },
        {
            "bufferView" : 8,
            "componentType" : 5126,
            "count" : 8968,
            "max" : [
                0.05117201805114746,
                0.28934237360954285,
                0.28440749645233154
            ],
            "min" : [
                -0.36169445514678955,
                -0.2844274342060089,
                -0.28953051567077637
            ],
            "type" : "VEC3"
        },
        {
            "bufferView" : 9,
            "componentType" : 5126,
            "count" : 8968,
            "type" : "VEC2"
        },
        {
            "bufferView" : 10,
            "componentType" : 5126,
            "count" : 8968,
            "type" : "VEC2"
        },
        {
            "bufferView" : 11,
            "componentType" : 5126,
            "count" : 8968,
            "type" : "VEC2"
        },
        {
            "bufferView" : 12,
            "componentType" : 5126,
            "count" : 8968,
            "type" : "VEC2"
        },
        {
            "bufferView" : 13,
            "componentType" : 5126,
            "count" : 8968,
            "type" : "VEC3"
        },
        {
            "bufferView" : 14,
            "componentType" : 5123,
            "count" : 26364,
            "type" : "SCALAR"
        }
    ],
    "bufferViews" : [
        {
            "buffer" : 0,
            "byteLength" : 240,
            "byteOffset" : 0,
            "target" : 34962
        },
        {
            "buffer" : 0,
            "byteLength" : 160,
            "byteOffset" : 240,
            "target" : 34962
        },
        {
            "buffer" : 0,
            "byteLength" : 160,
            "byteOffset" : 400,
            "target" : 34962
        },
        {
            "buffer" : 0,
            "byteLength" : 160,
            "byteOffset" : 560,
            "target" : 34962
        },
        {
            "buffer" : 0,
            "byteLength" : 160,
            "byteOffset" : 720,
            "target" : 34962
        },
        {
            "buffer" : 0,
            "byteLength" : 240,
            "byteOffset" : 880,
            "target" : 34962
        },
        {
            "buffer" : 0,
            "byteLength" : 108,
            "byteOffset" : 1120,
            "target" : 34963
        },
        {
            "buffer" : 0,
            "byteLength" : 801653,
            "byteOffset" : 1228
        },
        {
            "buffer" : 0,
            "byteLength" : 107616,
            "byteOffset" : 802884,
            "target" : 34962
        },
        {
            "buffer" : 0,
            "byteLength" : 71744,
            "byteOffset" : 910500,
            "target" : 34962
        },
        {
            "buffer" : 0,
            "byteLength" : 71744,
            "byteOffset" : 982244,
            "target" : 34962
        },
        {
            "buffer" : 0,
            "byteLength" : 71744,
            "byteOffset" : 1053988,
            "target" : 34962
        },
        {
            "buffer" : 0,
            "byteLength" : 71744,
            "byteOffset" : 1125732,
            "target" : 34962
        },
        {
            "buffer" : 0,
            "byteLength" : 107616,
            "byteOffset" : 1197476,
            "target" : 34962
        },
        {
            "buffer" : 0,
            "byteLength" : 52728,
            "byteOffset" : 1305092,
            "target" : 34963
        }
    ],
    "samplers" : [
        {
            "magFilter" : 9729,
            "minFilter" : 9987
        }
    ],
    "buffers" : [
        {
            "byteLength" : 1357820,
            "uri" : "data:application/octet-stream;base64,"
        }
    ]
}
