{
    "asset" : {
        "generator" : "Khronos glTF Blender I/O v3.4.50",
        "version" : "2.0"
    },
    "scene" : 0,
    "scenes" : [
        {
            "name" : "Scene",
            "nodes" : [
                10
            ]
        }
    ],
    "nodes" : [
        {
            "name" : "Body.003_2",
            "scale" : [
                0.014393934980034828,
                0.014393934980034828,
                0.014393934980034828
            ],
            "translation" : [
                0.001481623505242169,
                3.672640085220337,
                2.253159999847412
            ]
        },
        {
            "name" : "Cylinder_0",
            "rotation" : [
                0.70710688829422,
                0,
                0,
                0.7071066498756409
            ],
            "scale" : [
                1.5180028676986694,
                0.6194012761116028,
                1.5180031061172485
            ],
            "translation" : [
                0,
                0,
                -0.0789942741394043
            ]
        },
        {
            "mesh" : 0,
            "name" : "Object_10"
        },
        {
            "mesh" : 1,
            "name" : "Object_11"
        },
        {
            "mesh" : 2,
            "name" : "Object_13"
        },
        {
            "mesh" : 3,
            "name" : "Object_15"
        },
        {
            "mesh" : 4,
            "name" : "Object_9"
        },
        {
            "children" : [
                2,
                3,
                4,
                5,
                6
            ],
            "name" : "wheels3_1",
            "rotation" : [
                -0.5,
                0.5,
                0.5000000596046448,
                0.4999999403953552
            ],
            "scale" : [
                4.736236095428467,
                4.736236095428467,
                4.736236095428467
            ],
            "translation" : [
                0,
                0,
                -1.1571687459945679
            ]
        },
        {
            "children" : [
                0,
                1,
                7
            ],
            "name" : "GLTF_SceneRootNode",
            "rotation" : [
                0.70710688829422,
                0,
                0,
                0.7071066498756409
            ]
        },
        {
            "children" : [
                8
            ],
            "name" : "root"
        },
        {
            "children" : [
                9
            ],
            "name" : "Sketchfab_model",
            "rotation" : [
                -0.70710688829422,
                0,
                0,
                0.7071066498756409
            ]
        }
    ],
    "materials" : [
        {
            "doubleSided" : true,
            "name" : "visse.002",
            "pbrMetallicRoughness" : {
                "baseColorFactor" : [
                    0.03207460045814514,
                    0.03207460045814514,
                    0.03207460045814514,
                    1
                ],
                "metallicFactor" : 0.7100980281829834,
                "roughnessFactor" : 0.38476094603538513
            }
        },
        {
            "doubleSided" : true,
            "name" : "Chrome_Text_Logo",
            "pbrMetallicRoughness" : {
                "baseColorFactor" : [
                    0,
                    0,
                    0,
                    1
                ],
                "roughnessFactor" : 0.23619119822978973
            }
        },
        {
            "doubleSided" : true,
            "name" : "Material.027",
            "pbrMetallicRoughness" : {
                "baseColorFactor" : [
                    1,
                    0.11387883871793747,
                    0,
                    1
                ],
                "metallicFactor" : 0.723127007484436,
                "roughnessFactor" : 0.18729600310325623
            }
        },
        {
            "doubleSided" : true,
            "name" : "Material.012",
            "pbrMetallicRoughness" : {
                "baseColorFactor" : [
                    1,
                    0.15477226674556732,
                    0.0006849502678960562,
                    1
                ],
                "metallicFactor" : 0.7556515336036682,
                "roughnessFactor" : 0
            }
        },
        {
            "doubleSided" : true,
            "name" : "plaquette_de_frein.002",
            "pbrMetallicRoughness" : {
                "baseColorFactor" : [
                    0.20190100371837616,
                    0.20190100371837616,
                    0.20190100371837616,
                    1
                ],
                "metallicFactor" : 0.8091453313827515,
                "roughnessFactor" : 0
            }
        }
    ],
    "meshes" : [
        {
            "name" : "Object_5",
            "primitives" : [
                {
                    "attributes" : {
                        "POSITION" : 0,
                        "TEXCOORD_0" : 1,
                        "TEXCOORD_1" : 2,
                        "TEXCOORD_2" : 3,
                        "TEXCOORD_3" : 4,
                        "NORMAL" : 5
                    },
                    "indices" : 6,
                    "material" : 0
                }
            ]
        },
        {
            "name" : "Object_6",
            "primitives" : [
                {
                    "attributes" : {
                        "POSITION" : 7,
                        "TEXCOORD_0" : 8,
                        "TEXCOORD_1" : 9,
                        "TEXCOORD_2" : 10,
                        "TEXCOORD_3" : 11,
                        "NORMAL" : 12
                    },
                    "indices" : 13,
                    "material" : 1
                }
            ]
        },
        {
            "name" : "Object_8",
            "primitives" : [
                {
                    "attributes" : {
                        "POSITION" : 14,
                        "TEXCOORD_0" : 15,
                        "TEXCOORD_1" : 16,
                        "TEXCOORD_2" : 17,
                        "TEXCOORD_3" : 18,
                        "NORMAL" : 19
                    },
                    "indices" : 20,
                    "material" : 2
                }
            ]
        },
        {
            "name" : "Object_10",
            "primitives" : [
                {
                    "attributes" : {
                        "POSITION" : 21,
                        "TEXCOORD_0" : 22,
                        "TEXCOORD_1" : 23,
                        "TEXCOORD_2" : 24,
                        "TEXCOORD_3" : 25,
                        "NORMAL" : 26
                    },
                    "indices" : 27,
                    "material" : 3
                }
            ]
        },
        {
            "name" : "Object_4",
            "primitives" : [
                {
                    "attributes" : {
                        "POSITION" : 28,
                        "TEXCOORD_0" : 29,
                        "TEXCOORD_1" : 30,
                        "TEXCOORD_2" : 31,
                        "TEXCOORD_3" : 32,
                        "NORMAL" : 33
                    },
                    "indices" : 34,
                    "material" : 4
                }
            ]
        }
    ],
    "accessors" : [
        {
            "bufferView" : 0,
            "componentType" : 5126,
            "count" : 7663,
            "max" : [
                -0.11749056726694107,
                0.12342764437198639,
                0.12570948898792267
            ],
            "min" : [
                -0.1543264091014862,
                -0.12543699145317078,
                -0.12339074164628983
            ],
            "type" : "VEC3"
        },
        {
            "bufferView" : 1,
            "componentType" : 5126,
            "count" : 7663,
            "type" : "VEC2"
        },
        {
            "bufferView" : 2,
            "componentType" : 5126,
            "count" : 7663,
            "type" : "VEC2"
        },
        {
            "bufferView" : 3,
            "componentType" : 5126,
            "count" : 7663,
            "type" : "VEC2"
        },
        {
            "bufferView" : 4,
            "componentType" : 5126,
            "count" : 7663,
            "type" : "VEC2"
        },
        {
            "bufferView" : 5,
            "componentType" : 5126,
            "count" : 7663,
            "type" : "VEC3"
        },
        {
            "bufferView" : 6,
            "componentType" : 5123,
            "count" : 27450,
            "type" : "SCALAR"
        },
        {
            "bufferView" : 7,
            "componentType" : 5126,
            "count" : 10674,
            "max" : [
                -0.0814194530248642,
                0.15905477106571198,
                0.14403390884399414
            ],
            "min" : [
                -0.08556544780731201,
                0.05260499194264412,
                0.05246969312429428
            ],
            "type" : "VEC3"
        },
        {
            "bufferView" : 8,
            "componentType" : 5126,
            "count" : 10674,
            "type" : "VEC2"
        },
        {
            "bufferView" : 9,
            "componentType" : 5126,
            "count" : 10674,
            "type" : "VEC2"
        },
        {
            "bufferView" : 10,
            "componentType" : 5126,
            "count" : 10674,
            "type" : "VEC2"
        },
        {
            "bufferView" : 11,
            "componentType" : 5126,
            "count" : 10674,
            "type" : "VEC2"
        },
        {
            "bufferView" : 12,
            "componentType" : 5126,
            "count" : 10674,
            "type" : "VEC3"
        },
        {
            "bufferView" : 13,
            "componentType" : 5123,
            "count" : 15312,
            "type" : "SCALAR"
        },
        {
            "bufferView" : 14,
            "componentType" : 5126,
            "count" : 544,
            "max" : [
                -0.09125592559576035,
                0.20658741891384125,
                0.19061172008514404
            ],
            "min" : [
                -0.2040414661169052,
                -0.005456828512251377,
                0.00376956001855433
            ],
            "type" : "VEC3"
        },
        {
            "bufferView" : 15,
            "componentType" : 5126,
            "count" : 544,
            "type" : "VEC2"
        },
        {
            "bufferView" : 16,
            "componentType" : 5126,
            "count" : 544,
            "type" : "VEC2"
        },
        {
            "bufferView" : 17,
            "componentType" : 5126,
            "count" : 544,
            "type" : "VEC2"
        },
        {
            "bufferView" : 18,
            "componentType" : 5126,
            "count" : 544,
            "type" : "VEC2"
        },
        {
            "bufferView" : 19,
            "componentType" : 5126,
            "count" : 544,
            "type" : "VEC3"
        },
        {
            "bufferView" : 20,
            "componentType" : 5123,
            "count" : 942,
            "type" : "SCALAR"
        },
        {
            "bufferView" : 21,
            "componentType" : 5126,
            "count" : 3657,
            "max" : [
                -0.08290157467126846,
                0.2199021875858307,
                0.21934816241264343
            ],
            "min" : [
                -0.20617112517356873,
                -0.0631890818476677,
                -0.0566549189388752
            ],
            "type" : "VEC3"
        },
        {
            "bufferView" : 22,
            "componentType" : 5126,
            "count" : 3657,
            "type" : "VEC2"
        },
        {
            "bufferView" : 23,
            "componentType" : 5126,
            "count" : 3657,
            "type" : "VEC2"
        },
        {
            "bufferView" : 24,
            "componentType" : 5126,
            "count" : 3657,
            "type" : "VEC2"
        },
        {
            "bufferView" : 25,
            "componentType" : 5126,
            "count" : 3657,
            "type" : "VEC2"
        },
        {
            "bufferView" : 26,
            "componentType" : 5126,
            "count" : 3657,
            "type" : "VEC3"
        },
        {
            "bufferView" : 27,
            "componentType" : 5123,
            "count" : 6588,
            "type" : "SCALAR"
        },
        {
            "bufferView" : 28,
            "componentType" : 5126,
            "count" : 16928,
            "max" : [
                -0.13862168788909912,
                0.1994652897119522,
                0.2001398801803589
            ],
            "min" : [
                -0.1669703871011734,
                -0.19989711046218872,
                -0.1997436285018921
            ],
            "type" : "VEC3"
        },
        {
            "bufferView" : 29,
            "componentType" : 5126,
            "count" : 16928,
            "type" : "VEC2"
        },
        {
            "bufferView" : 30,
            "componentType" : 5126,
            "count" : 16928,
            "type" : "VEC2"
        },
        {
            "bufferView" : 31,
            "componentType" : 5126,
            "count" : 16928,
            "type" : "VEC2"
        },
        {
            "bufferView" : 32,
            "componentType" : 5126,
            "count" : 16928,
            "type" : "VEC2"
        },
        {
            "bufferView" : 33,
            "componentType" : 5126,
            "count" : 16928,
            "type" : "VEC3"
        },
        {
            "bufferView" : 34,
            "componentType" : 5123,
            "count" : 19164,
            "type" : "SCALAR"
        }
    ],
    "bufferViews" : [
        {
            "buffer" : 0,
            "byteLength" : 91956,
            "byteOffset" : 0,
            "target" : 34962
        },
        {
            "buffer" : 0,
            "byteLength" : 61304,
            "byteOffset" : 91956,
            "target" : 34962
        },
        {
            "buffer" : 0,
            "byteLength" : 61304,
            "byteOffset" : 153260,
            "target" : 34962
        },
        {
            "buffer" : 0,
            "byteLength" : 61304,
            "byteOffset" : 214564,
            "target" : 34962
        },
        {
            "buffer" : 0,
            "byteLength" : 61304,
            "byteOffset" : 275868,
            "target" : 34962
        },
        {
            "buffer" : 0,
            "byteLength" : 91956,
            "byteOffset" : 337172,
            "target" : 34962
        },
        {
            "buffer" : 0,
            "byteLength" : 54900,
            "byteOffset" : 429128,
            "target" : 34963
        },
        {
            "buffer" : 0,
            "byteLength" : 128088,
            "byteOffset" : 484028,
            "target" : 34962
        },
        {
            "buffer" : 0,
            "byteLength" : 85392,
            "byteOffset" : 612116,
            "target" : 34962
        },
        {
            "buffer" : 0,
            "byteLength" : 85392,
            "byteOffset" : 697508,
            "target" : 34962
        },
        {
            "buffer" : 0,
            "byteLength" : 85392,
            "byteOffset" : 782900,
            "target" : 34962
        },
        {
            "buffer" : 0,
            "byteLength" : 85392,
            "byteOffset" : 868292,
            "target" : 34962
        },
        {
            "buffer" : 0,
            "byteLength" : 128088,
            "byteOffset" : 953684,
            "target" : 34962
        },
        {
            "buffer" : 0,
            "byteLength" : 30624,
            "byteOffset" : 1081772,
            "target" : 34963
        },
        {
            "buffer" : 0,
            "byteLength" : 6528,
            "byteOffset" : 1112396,
            "target" : 34962
        },
        {
            "buffer" : 0,
            "byteLength" : 4352,
            "byteOffset" : 1118924,
            "target" : 34962
        },
        {
            "buffer" : 0,
            "byteLength" : 4352,
            "byteOffset" : 1123276,
            "target" : 34962
        },
        {
            "buffer" : 0,
            "byteLength" : 4352,
            "byteOffset" : 1127628,
            "target" : 34962
        },
        {
            "buffer" : 0,
            "byteLength" : 4352,
            "byteOffset" : 1131980,
            "target" : 34962
        },
        {
            "buffer" : 0,
            "byteLength" : 6528,
            "byteOffset" : 1136332,
            "target" : 34962
        },
        {
            "buffer" : 0,
            "byteLength" : 1884,
            "byteOffset" : 1142860,
            "target" : 34963
        },
        {
            "buffer" : 0,
            "byteLength" : 43884,
            "byteOffset" : 1144744,
            "target" : 34962
        },
        {
            "buffer" : 0,
            "byteLength" : 29256,
            "byteOffset" : 1188628,
            "target" : 34962
        },
        {
            "buffer" : 0,
            "byteLength" : 29256,
            "byteOffset" : 1217884,
            "target" : 34962
        },
        {
            "buffer" : 0,
            "byteLength" : 29256,
            "byteOffset" : 1247140,
            "target" : 34962
        },
        {
            "buffer" : 0,
            "byteLength" : 29256,
            "byteOffset" : 1276396,
            "target" : 34962
        },
        {
            "buffer" : 0,
            "byteLength" : 43884,
            "byteOffset" : 1305652,
            "target" : 34962
        },
        {
            "buffer" : 0,
            "byteLength" : 13176,
            "byteOffset" : 1349536,
            "target" : 34963
        },
        {
            "buffer" : 0,
            "byteLength" : 203136,
            "byteOffset" : 1362712,
            "target" : 34962
        },
        {
            "buffer" : 0,
            "byteLength" : 135424,
            "byteOffset" : 1565848,
            "target" : 34962
        },
        {
            "buffer" : 0,
            "byteLength" : 135424,
            "byteOffset" : 1701272,
            "target" : 34962
        },
        {
            "buffer" : 0,
            "byteLength" : 135424,
            "byteOffset" : 1836696,
            "target" : 34962
        },
        {
            "buffer" : 0,
            "byteLength" : 135424,
            "byteOffset" : 1972120,
            "target" : 34962
        },
        {
            "buffer" : 0,
            "byteLength" : 203136,
            "byteOffset" : 2107544,
            "target" : 34962
        },
        {
            "buffer" : 0,
            "byteLength" : 38328,
            "byteOffset" : 2310680,
            "target" : 34963
        }
    ],
    "buffers" : [
        {
            "byteLength" : 2349008,
            "uri" : "data:application/octet-stream;base64,"
        }
    ]
}
