{
    "asset" : {
        "generator" : "Khronos glTF Blender I/O v3.4.50",
        "version" : "2.0"
    },
    "scene" : 0,
    "scenes" : [
        {
            "name" : "Scene",
            "nodes" : [
                26
            ]
        }
    ],
    "nodes" : [
        {
            "name" : "entity_10"
        },
        {
            "name" : "g_Rim.001",
            "translation" : [
                0,
                -1.4552970242220908e-05,
                -1.4518998796120286e-05
            ]
        },
        {
            "children" : [
                1
            ],
            "name" : "g_Rim",
            "translation" : [
                0,
                -1.4552970242220908e-05,
                -1.4518998796120286e-05
            ]
        },
        {
            "name" : "g_Rim_star.001",
            "translation" : [
                0,
                -1.4552970242220908e-05,
                -1.4518998796120286e-05
            ]
        },
        {
            "children" : [
                3
            ],
            "name" : "g_Rim_star",
            "translation" : [
                0,
                -1.4552970242220908e-05,
                -1.4518998796120286e-05
            ]
        },
        {
            "children" : [
                2,
                4
            ],
            "name" : "RootNode_gltf_orientation_matrix",
            "rotation" : [
                -0.70710688829422,
                0,
                0,
                0.7071066498756409
            ],
            "translation" : [
                0,
                -3.0517578125e-05,
                3.0517578125e-05
            ]
        },
        {
            "children" : [
                5
            ],
            "name" : "entity_3",
            "translation" : [
                0,
                -3.0517578125e-05,
                3.0517578125e-05
            ]
        },
        {
            "children" : [
                6
            ],
            "name" : "entity_2",
            "scale" : [
                0.009999999776482582,
                0.009999999776482582,
                0.009999999776482582
            ],
            "translation" : [
                0,
                5,
                0
            ]
        },
        {
            "mesh" : 0,
            "name" : "g_Tire_0",
            "translation" : [
                0,
                -1.4552970242220908e-05,
                -1.4518998796120286e-05
            ]
        },
        {
            "children" : [
                8
            ],
            "name" : "g_Tire.001",
            "translation" : [
                0,
                -1.4552970242220908e-05,
                -1.4518998796120286e-05
            ]
        },
        {
            "children" : [
                9
            ],
            "name" : "g_Tire",
            "translation" : [
                0,
                -1.4552970242220908e-05,
                -1.4518998796120286e-05
            ]
        },
        {
            "children" : [
                10
            ],
            "name" : "RootNode_gltf_orientation_matrix.001",
            "rotation" : [
                -0.70710688829422,
                0,
                0,
                0.7071066498756409
            ],
            "translation" : [
                0,
                -3.0517578125e-05,
                3.0517578125e-05
            ]
        },
        {
            "children" : [
                11
            ],
            "name" : "entity_5",
            "translation" : [
                0,
                -3.0517578125e-05,
                3.0517578125e-05
            ]
        },
        {
            "children" : [
                12
            ],
            "name" : "entity_4",
            "scale" : [
                0.009999999776482582,
                0.009999999776482582,
                0.009999999776482582
            ],
            "translation" : [
                0,
                5,
                0
            ]
        },
        {
            "name" : "defaultobject.001",
            "translation" : [
                0,
                -1.4552970242220908e-05,
                -1.4518998796120286e-05
            ]
        },
        {
            "children" : [
                14
            ],
            "name" : "defaultobject",
            "translation" : [
                0,
                -1.4552970242220908e-05,
                -1.4518998796120286e-05
            ]
        },
        {
            "name" : "g_Cylinder017.001",
            "translation" : [
                0,
                -1.4552970242220908e-05,
                -1.4518998796120286e-05
            ]
        },
        {
            "children" : [
                16
            ],
            "name" : "g_Cylinder017",
            "translation" : [
                0,
                -1.4552970242220908e-05,
                -1.4518998796120286e-05
            ]
        },
        {
            "children" : [
                15,
                17
            ],
            "name" : "RootNode_gltf_orientation_matrix.002",
            "rotation" : [
                -0.70710688829422,
                0,
                0,
                0.7071066498756409
            ],
            "translation" : [
                0,
                -3.0517578125e-05,
                3.0517578125e-05
            ]
        },
        {
            "children" : [
                18
            ],
            "name" : "entity_7",
            "translation" : [
                0,
                -3.0517578125e-05,
                3.0517578125e-05
            ]
        },
        {
            "children" : [
                19
            ],
            "name" : "entity_6",
            "scale" : [
                0.009999999776482582,
                0.009999999776482582,
                0.009999999776482582
            ],
            "translation" : [
                0,
                5,
                0
            ]
        },
        {
            "name" : "g_Support.001",
            "translation" : [
                0,
                -1.4552970242220908e-05,
                -1.4518998796120286e-05
            ]
        },
        {
            "children" : [
                21
            ],
            "name" : "g_Support",
            "translation" : [
                0,
                -1.4552970242220908e-05,
                -1.4518998796120286e-05
            ]
        },
        {
            "children" : [
                22
            ],
            "name" : "RootNode_gltf_orientation_matrix.003",
            "rotation" : [
                -0.70710688829422,
                0,
                0,
                0.7071066498756409
            ],
            "translation" : [
                0,
                -3.0517578125e-05,
                3.0517578125e-05
            ]
        },
        {
            "children" : [
                23
            ],
            "name" : "entity_9",
            "translation" : [
                0,
                -3.0517578125e-05,
                3.0517578125e-05
            ]
        },
        {
            "children" : [
                24
            ],
            "name" : "entity_8",
            "scale" : [
                0.009999999776482582,
                0.009999999776482582,
                0.009999999776482582
            ],
            "translation" : [
                0,
                5,
                0
            ]
        },
        {
            "children" : [
                0,
                7,
                13,
                20,
                25
            ],
            "name" : "entity_1",
            "rotation" : [
                0,
                0.7071068286895752,
                0,
                0.7071067094802856
            ],
            "translation" : [
                3.3519628047943115,
                -1.645509123802185,
                0
            ]
        }
    ],
    "materials" : [
        {
            "doubleSided" : true,
            "emissiveFactor" : [
                0.003921568859368563,
                0.003921568859368563,
                0.003921568859368563
            ],
            "name" : "mat_0.002",
            "pbrMetallicRoughness" : {
                "baseColorFactor" : [
                    0.003921568859368563,
                    0.003921568859368563,
                    0.003921568859368563,
                    1
                ],
                "metallicFactor" : 0,
                "roughnessFactor" : 0.25999999046325684
            }
        }
    ],
    "meshes" : [
        {
            "name" : "Mesh_2",
            "primitives" : [
                {
                    "attributes" : {
                        "POSITION" : 0,
                        "NORMAL" : 1
                    },
                    "indices" : 2,
                    "material" : 0
                }
            ]
        }
    ],
    "accessors" : [
        {
            "bufferView" : 0,
            "componentType" : 5126,
            "count" : 22012,
            "max" : [
                147.8260040283203,
                670.8259887695312,
                337.6080017089844
            ],
            "min" : [
                -115.55500030517578,
                -4.385799884796143,
                -337.60400390625
            ],
            "type" : "VEC3"
        },
        {
            "bufferView" : 1,
            "componentType" : 5126,
            "count" : 22012,
            "type" : "VEC3"
        },
        {
            "bufferView" : 2,
            "componentType" : 5123,
            "count" : 76896,
            "type" : "SCALAR"
        }
    ],
    "bufferViews" : [
        {
            "buffer" : 0,
            "byteLength" : 264144,
            "byteOffset" : 0,
            "target" : 34962
        },
        {
            "buffer" : 0,
            "byteLength" : 264144,
            "byteOffset" : 264144,
            "target" : 34962
        },
        {
            "buffer" : 0,
            "byteLength" : 153792,
            "byteOffset" : 528288,
            "target" : 34963
        }
    ],
    "buffers" : [
        {
            "byteLength" : 682080,
            "uri" : "data:application/octet-stream;base64,"
        }
    ]
}
